<svg width="48" height="48" viewBox="0 0 48 48" fill="none" xmlns="http://www.w3.org/2000/svg">
<g filter="url(#filter0_d_172_219)">
<path fill-rule="evenodd" clip-rule="evenodd" d="M5.43408 23.2459C5.43408 25.6721 5.91197 28.0746 6.84045 30.3161C7.76893 32.5577 9.12982 34.5944 10.8454 36.31C12.561 38.0256 14.5978 39.3865 16.8393 40.315C19.0808 41.2434 21.4833 41.7213 23.9096 41.7213C26.3358 41.7213 28.7383 41.2434 30.9798 40.315C33.2214 39.3865 35.2581 38.0256 36.9737 36.31C38.6893 34.5944 40.0502 32.5577 40.9787 30.3161C41.9071 28.0746 42.385 25.6721 42.385 23.2459C40.936 27.8647 35.2122 34.7659 23.9096 25.4194C22.5105 24.2626 21.2074 23.2709 19.9949 22.4272C17.4352 26.9265 13.6696 29.2457 5.43408 23.2459Z" fill="#6100FF" fill-opacity="0.5"/>
<path d="M42.385 23.2459C42.385 16.9968 37.1292 5.42942 29.3496 7.48736C24.3511 8.80963 23.0088 17.1296 19.9949 22.4272C21.2074 23.2709 22.5105 24.2626 23.9096 25.4194C35.2122 34.7659 40.936 27.8647 42.385 23.2459Z" fill="#00B2FE"/>
<path fill-rule="evenodd" clip-rule="evenodd" d="M5.43408 23.2459C5.43408 25.6721 5.91197 28.0746 6.84045 30.3161C7.76893 32.5577 9.12982 34.5944 10.8454 36.31C12.561 38.0256 14.5978 39.3865 16.8393 40.315C19.0808 41.2434 21.4833 41.7213 23.9096 41.7213C26.3358 41.7213 28.7383 41.2434 30.9798 40.315C33.2214 39.3865 35.2581 38.0256 36.9737 36.31C38.6893 34.5944 40.0502 32.5577 40.9787 30.3161C41.9071 28.0746 42.385 25.6721 42.385 23.2459C40.936 27.8647 35.2122 34.7659 23.9096 25.4194C22.5105 24.2626 21.2074 23.2709 19.9949 22.4272C17.4352 26.9265 13.6696 29.2457 5.43408 23.2459Z" fill="#0056CA"/>
<path d="M19.9949 22.4272C17.4352 26.9265 13.6696 29.2457 5.43408 23.2459C5.43408 19.3292 8.96294 14.7508 19.9949 22.4272Z" fill="#006AD0"/>
</g>
<defs>
<filter id="filter0_d_172_219" x="3.43408" y="7.24536" width="40.9512" height="38.4761" filterUnits="userSpaceOnUse" color-interpolation-filters="sRGB">
<feFlood flood-opacity="0" result="BackgroundImageFix"/>
<feColorMatrix in="SourceAlpha" type="matrix" values="0 0 0 0 0 0 0 0 0 0 0 0 0 0 0 0 0 0 127 0" result="hardAlpha"/>
<feOffset dy="2"/>
<feGaussianBlur stdDeviation="1"/>
<feComposite in2="hardAlpha" operator="out"/>
<feColorMatrix type="matrix" values="0 0 0 0 0 0 0 0 0 0 0 0 0 0 0 0 0 0 0.16 0"/>
<feBlend mode="normal" in2="BackgroundImageFix" result="effect1_dropShadow_172_219"/>
<feBlend mode="normal" in="SourceGraphic" in2="effect1_dropShadow_172_219" result="shape"/>
</filter>
</defs>
</svg>
