<svg width="82" height="85" viewBox="0 0 82 85" fill="none" xmlns="http://www.w3.org/2000/svg">
<path d="M43.4491 28.1299C44.0607 28.7414 46.4455 30.209 51.093 31.1874C56.9024 32.4105 58.1254 41.5831 45.2837 44.0292C32.4419 46.4752 32.7477 51.9788 32.7477 57.7882" stroke="#AACBF5" stroke-opacity="0.5" stroke-width="1.22302" stroke-linecap="round" stroke-linejoin="round" stroke-dasharray="3.67 3.67"/>
<path d="M0.736839 35.9385C0.401177 35.1329 0.993061 34.2451 1.86578 34.2451H18.1573C18.6588 34.2451 19.1094 34.5513 19.2942 35.0175L30.8774 64.2387C31.3296 65.3794 30.0076 66.4012 29.0177 65.676L6.42141 49.1229C6.24147 48.9911 6.10101 48.8125 6.01522 48.6066L0.736839 35.9385Z" fill="url(#paint0_linear_1775_17454)"/>
<path d="M81.268 35.9385C81.6037 35.1329 81.0118 34.2451 80.1391 34.2451H63.8333C63.339 34.2451 62.8933 34.5427 62.7038 34.9993L56.2902 50.4502L51.1234 62.8973C50.6585 64.0173 51.9315 65.0582 52.9368 64.3802L75.8585 48.9214L81.268 35.9385Z" fill="url(#paint1_linear_1775_17454)"/>
<path d="M6.45215 48.9209H57.2075V85H10.1212C8.09485 85 6.45215 83.3573 6.45215 81.331V48.9209Z" fill="#DCEAFD"/>
<g filter="url(#filter0_d_1775_17454)">
<path d="M5.75987 48.9209H57.2075L55.6458 59.0274C55.1851 62.0087 52.6191 64.2087 49.6024 64.2087H9.58165C5.54482 64.2087 2.61563 60.3663 3.685 56.4736L5.75987 48.9209Z" fill="url(#paint2_linear_1775_17454)"/>
</g>
<path d="M56.9019 48.9209H75.8587V81.331C75.8587 83.3573 74.216 85 72.1896 85H56.9019V48.9209Z" fill="url(#paint3_linear_1775_17454)"/>
<g filter="url(#filter1_i_1775_17454)">
<rect x="58.7363" y="52.5898" width="15.2878" height="2.44604" fill="#C2D4FA"/>
</g>
<path fill-rule="evenodd" clip-rule="evenodd" d="M47.9294 16.9352C48.1719 16.5787 47.9791 16.0899 47.5585 15.9948L18.2193 9.36367C17.6777 9.24125 17.2664 9.84588 17.5793 10.3047L34.5255 35.156C34.7684 35.5122 35.2938 35.5119 35.5363 35.1554L40.7719 27.4581C40.9524 27.1927 40.8969 26.8328 40.6448 26.634L28.3477 16.9389L41.8826 24.8142C42.1601 24.9757 42.5152 24.8951 42.6958 24.6296L47.9294 16.9352Z" fill="url(#paint4_linear_1775_17454)"/>
<defs>
<filter id="filter0_d_1775_17454" x="1.01709" y="48.9209" width="58.6365" height="20.1802" filterUnits="userSpaceOnUse" color-interpolation-filters="sRGB">
<feFlood flood-opacity="0" result="BackgroundImageFix"/>
<feColorMatrix in="SourceAlpha" type="matrix" values="0 0 0 0 0 0 0 0 0 0 0 0 0 0 0 0 0 0 127 0" result="hardAlpha"/>
<feOffset dy="2.44604"/>
<feGaussianBlur stdDeviation="1.22302"/>
<feComposite in2="hardAlpha" operator="out"/>
<feColorMatrix type="matrix" values="0 0 0 0 0.745098 0 0 0 0 0.827451 0 0 0 0 1 0 0 0 0.2 0"/>
<feBlend mode="normal" in2="BackgroundImageFix" result="effect1_dropShadow_1775_17454"/>
<feBlend mode="normal" in="SourceGraphic" in2="effect1_dropShadow_1775_17454" result="shape"/>
</filter>
<filter id="filter1_i_1775_17454" x="58.7363" y="52.5898" width="15.2878" height="3.66931" filterUnits="userSpaceOnUse" color-interpolation-filters="sRGB">
<feFlood flood-opacity="0" result="BackgroundImageFix"/>
<feBlend mode="normal" in="SourceGraphic" in2="BackgroundImageFix" result="shape"/>
<feColorMatrix in="SourceAlpha" type="matrix" values="0 0 0 0 0 0 0 0 0 0 0 0 0 0 0 0 0 0 127 0" result="hardAlpha"/>
<feOffset dy="1.22302"/>
<feGaussianBlur stdDeviation="0.917266"/>
<feComposite in2="hardAlpha" operator="arithmetic" k2="-1" k3="1"/>
<feColorMatrix type="matrix" values="0 0 0 0 0.75 0 0 0 0 0.828125 0 0 0 0 1 0 0 0 1 0"/>
<feBlend mode="normal" in2="shape" result="effect1_innerShadow_1775_17454"/>
</filter>
<linearGradient id="paint0_linear_1775_17454" x1="10.4269" y1="34.2451" x2="21.4341" y2="51.3674" gradientUnits="userSpaceOnUse">
<stop stop-color="#E4EDFF"/>
<stop offset="1" stop-color="#BACDF7"/>
</linearGradient>
<linearGradient id="paint1_linear_1775_17454" x1="71.5779" y1="34.2451" x2="61.2747" y2="51.0283" gradientUnits="userSpaceOnUse">
<stop stop-color="#E4EDFF"/>
<stop offset="1" stop-color="#BACDF7"/>
</linearGradient>
<linearGradient id="paint2_linear_1775_17454" x1="5.75987" y1="56.5648" x2="57.2075" y2="56.5648" gradientUnits="userSpaceOnUse">
<stop stop-color="#EFF4FF"/>
<stop offset="1" stop-color="#F8F9FC"/>
</linearGradient>
<linearGradient id="paint3_linear_1775_17454" x1="66.3803" y1="48.9209" x2="66.3803" y2="85" gradientUnits="userSpaceOnUse">
<stop stop-color="#CEDEFF"/>
<stop offset="1" stop-color="#BACDF7"/>
</linearGradient>
<linearGradient id="paint4_linear_1775_17454" x1="16.7056" y1="9.02066" x2="41.7343" y2="26.0448" gradientUnits="userSpaceOnUse">
<stop stop-color="#E4ECFF"/>
<stop offset="1" stop-color="#7CA5FF"/>
</linearGradient>
</defs>
</svg>
