<svg width="24" height="24" viewBox="0 0 24 24" fill="none" xmlns="http://www.w3.org/2000/svg">
<path d="M16.25 7.25C16.25 10.1495 13.8995 12.5 11 12.5C8.1005 12.5 5.75 10.1495 5.75 7.25C5.75 4.35051 8.1005 2 11 2C13.8995 2 16.25 4.35051 16.25 7.25Z" fill="black"/>
<path d="M5.75 7.25H16.25V15.125H5.75V7.25Z" fill="black"/>
<path d="M4 15.125H18V16.875H4V15.125Z" fill="black"/>
<path d="M5.75 13.375L4 15.125H5.75V13.375Z" fill="black"/>
<path d="M16.25 13.375L18 15.125H16.25V13.375Z" fill="black"/>
<path d="M9.25 17.75C9.25 18.7165 10.0335 19.5 11 19.5C11.9665 19.5 12.75 18.7165 12.75 17.75H9.25Z" fill="black"/>
</svg>
