<svg width="12" height="13" viewBox="0 0 12 13" fill="none" xmlns="http://www.w3.org/2000/svg">
<g clip-path="url(#clip0_952_886)">
<path fill-rule="evenodd" clip-rule="evenodd" d="M0.927002 6.39266C0.927002 6.24562 0.985417 6.10459 1.0894 6.00061C1.19337 5.89663 1.3344 5.83822 1.48145 5.83822L9.01448 5.83822L7.0037 3.82744C6.90576 3.72234 6.85245 3.58332 6.85498 3.43968C6.85752 3.29604 6.9157 3.159 7.01729 3.05741C7.11887 2.95583 7.25592 2.89764 7.39956 2.89511C7.5432 2.89257 7.68221 2.94589 7.78731 3.04383L10.7443 6.00086C10.8482 6.10482 10.9065 6.24574 10.9065 6.39266C10.9065 6.53959 10.8482 6.68051 10.7443 6.78447L7.78731 9.7415C7.68221 9.83944 7.5432 9.89276 7.39956 9.89022C7.25592 9.88769 7.11887 9.8295 7.01729 9.72792C6.9157 9.62633 6.85752 9.48928 6.85498 9.34565C6.85245 9.20201 6.90576 9.06299 7.0037 8.95789L9.01448 6.94711L1.48145 6.94711C1.3344 6.94711 1.19337 6.88869 1.0894 6.78471C0.985417 6.68074 0.927002 6.53971 0.927002 6.39266Z" fill="#0056CA"/>
</g>
<defs>
<clipPath id="clip0_952_886">
<rect width="11.8281" height="11.8281" fill="white" transform="translate(11.8311 0.478516) rotate(90)"/>
</clipPath>
</defs>
</svg>
