<svg width="60" height="48" viewBox="0 0 60 48" fill="none" xmlns="http://www.w3.org/2000/svg">
<g clip-path="url(#clip0_1994_7066)">
<path d="M40.2593 29.2434C39.6523 28.1978 38.75 25.2392 38.75 21.375C38.75 19.0544 37.8281 16.8288 36.1871 15.1878C34.5462 13.5469 32.3206 12.625 30 12.625C27.6793 12.625 25.4537 13.5469 23.8128 15.1878C22.1718 16.8288 21.25 19.0544 21.25 21.375C21.25 25.2403 20.3465 28.1978 19.7395 29.2434C19.5845 29.5093 19.5023 29.8113 19.5012 30.119C19.5002 30.4267 19.5803 30.7293 19.7335 30.9962C19.8867 31.263 20.1075 31.4848 20.3738 31.6391C20.64 31.7934 20.9422 31.8748 21.25 31.875H25.7135C25.9154 32.8628 26.4523 33.7506 27.2333 34.3882C28.0144 35.0258 28.9917 35.374 30 35.374C31.0082 35.374 31.9855 35.0258 32.7666 34.3882C33.5476 33.7506 34.0845 32.8628 34.2864 31.875H38.75C39.0576 31.8746 39.3597 31.7931 39.6258 31.6387C39.8919 31.4843 40.1126 31.2625 40.2656 30.9957C40.4187 30.7288 40.4987 30.4263 40.4976 30.1187C40.4965 29.8111 40.4143 29.5092 40.2593 29.2434ZM30 33.625C29.4573 33.6248 28.9279 33.4565 28.4849 33.1431C28.0418 32.8297 27.7068 32.3867 27.5259 31.875H32.474C32.2931 32.3867 31.9581 32.8297 31.515 33.1431C31.072 33.4565 30.5426 33.6248 30 33.625Z" fill="#959FAC"/>
</g>
<defs>
<clipPath id="clip0_1994_7066">
<rect width="28" height="28" fill="white" transform="translate(16 10)"/>
</clipPath>
</defs>
</svg>
