<svg width="44" height="44" viewBox="0 0 44 44" fill="none" xmlns="http://www.w3.org/2000/svg">
<g clip-path="url(#clip0_1895_8591)">
<path fill-rule="evenodd" clip-rule="evenodd" d="M11.0625 22C11.0625 21.2751 11.6501 20.6875 12.375 20.6875H31.625C32.3499 20.6875 32.9375 21.2751 32.9375 22C32.9375 22.7249 32.3499 23.3125 31.625 23.3125H12.375C11.6501 23.3125 11.0625 22.7249 11.0625 22Z" fill="#959FAC"/>
<path fill-rule="evenodd" clip-rule="evenodd" d="M11.0625 15C11.0625 14.2751 11.6501 13.6875 12.375 13.6875H31.625C32.3499 13.6875 32.9375 14.2751 32.9375 15C32.9375 15.7249 32.3499 16.3125 31.625 16.3125H12.375C11.6501 16.3125 11.0625 15.7249 11.0625 15Z" fill="#959FAC"/>
<path fill-rule="evenodd" clip-rule="evenodd" d="M11.0625 29C11.0625 28.2751 11.6501 27.6875 12.375 27.6875H31.625C32.3499 27.6875 32.9375 28.2751 32.9375 29C32.9375 29.7249 32.3499 30.3125 31.625 30.3125H12.375C11.6501 30.3125 11.0625 29.7249 11.0625 29Z" fill="#959FAC"/>
</g>
<defs>
<clipPath id="clip0_1895_8591">
<rect width="28" height="28" fill="white" transform="translate(8 8)"/>
</clipPath>
</defs>
</svg>
