<svg width="76" height="65" viewBox="0 0 76 65" fill="none" xmlns="http://www.w3.org/2000/svg">
<path d="M5.875 32.5C5.875 14.5507 20.4257 0 38.375 0C56.3243 0 70.875 14.5507 70.875 32.5C70.875 50.4493 56.3243 65 38.375 65C20.4257 65 5.875 50.4493 5.875 32.5Z" fill="url(#paint0_linear_282_6428)"/>
<g clip-path="url(#clip0_282_6428)">
<path d="M18.7083 30.66C18.845 30.76 18.9816 30.8533 19.115 30.9467L19.245 31.04C22.4916 33.3033 25.1816 34.4067 27.4416 34.4067C29.9416 34.4067 31.9316 33.0167 33.6916 30.04L33.7183 29.99C22.765 22.5333 18.825 26.4567 18.4116 30.44L18.7083 30.6533C18.7083 30.6533 18.7083 30.6533 18.7083 30.6567V30.66Z" fill="url(#paint1_linear_282_6428)"/>
<path d="M44.2618 14.1033C38.8518 15.5333 37.3984 24.54 34.1351 30.2767C34.0418 30.44 33.9484 30.6 33.8518 30.76C33.8218 30.81 33.7884 30.86 33.7584 30.91C33.6918 31.0167 33.6251 31.1233 33.5584 31.2267C33.5218 31.2833 33.4818 31.34 33.4451 31.3967C33.3818 31.49 33.3184 31.5833 33.2518 31.6767C33.2118 31.7333 33.1684 31.79 33.1284 31.8467C33.0651 31.9333 32.9984 32.0233 32.9318 32.1067C32.8884 32.16 32.8484 32.2167 32.8051 32.2667C32.7351 32.3533 32.6651 32.4367 32.5951 32.52C32.5551 32.5667 32.5118 32.6167 32.4718 32.6633C32.3918 32.7533 32.3118 32.84 32.2284 32.9267C32.1951 32.9633 32.1584 33 32.1251 33.0367C31.8884 33.2767 31.6418 33.5 31.3851 33.7C31.3484 33.73 31.3084 33.7567 31.2684 33.7867C31.1784 33.8567 31.0851 33.9233 30.9918 33.9867C30.9418 34.02 30.8918 34.05 30.8418 34.0833C30.7551 34.14 30.6684 34.1933 30.5784 34.2433C30.5251 34.2733 30.4684 34.3033 30.4151 34.3333C30.3284 34.38 30.2384 34.4267 30.1484 34.47C30.0918 34.4967 30.0351 34.5233 29.9784 34.55C29.8851 34.59 29.7884 34.63 29.6951 34.6667C29.6384 34.6867 29.5818 34.71 29.5251 34.73C29.4184 34.7667 29.3084 34.8 29.2018 34.83C29.1518 34.8433 29.1051 34.86 29.0551 34.8733C28.8951 34.9133 28.7318 34.95 28.5618 34.98C28.5551 34.98 28.5484 34.98 28.5418 34.98C28.3818 35.0067 28.2151 35.0267 28.0484 35.0433C27.9918 35.05 27.9318 35.05 27.8751 35.0533C27.7551 35.06 27.6384 35.0667 27.5151 35.0667C27.4918 35.0667 27.4718 35.0667 27.4484 35.0667C27.3818 35.0667 27.3084 35.0633 27.2418 35.06C27.1718 35.06 27.1018 35.06 27.0318 35.0533C26.9818 35.0533 26.9284 35.0433 26.8784 35.04C25.8384 34.96 24.6784 34.6633 23.3818 34.11C23.3251 34.0867 23.2651 34.0567 23.2051 34.0333C23.0951 33.9867 22.9884 33.94 22.8784 33.89C21.5118 33.2667 20.0051 32.3833 18.3784 31.2133C18.3851 33.82 18.9018 36.4 19.8984 38.81C20.9051 41.2367 22.3751 43.44 24.2351 45.3C26.0951 47.16 28.2984 48.63 30.7251 49.6367C33.1518 50.64 35.7518 51.16 38.3784 51.16C41.0051 51.16 43.6051 50.6433 46.0317 49.6367C48.4584 48.63 50.6618 47.16 52.5217 45.3C54.3784 43.4433 55.8517 41.2367 56.8584 38.81C57.8651 36.3833 58.3817 33.7833 58.3817 31.1567C58.3817 24.3933 52.6917 11.87 44.2717 14.0967L44.2618 14.1033Z" fill="white"/>
</g>
<defs>
<linearGradient id="paint0_linear_282_6428" x1="60.125" y1="7.75" x2="16.125" y2="56.25" gradientUnits="userSpaceOnUse">
<stop stop-color="#2D86FF"/>
<stop offset="1" stop-color="#0056CA"/>
</linearGradient>
<linearGradient id="paint1_linear_282_6428" x1="21.125" y1="25.7769" x2="30.875" y2="34.4067" gradientUnits="userSpaceOnUse">
<stop stop-color="white"/>
<stop offset="1" stop-color="white" stop-opacity="0.7"/>
</linearGradient>
<clipPath id="clip0_282_6428">
<rect width="40" height="37.32" fill="white" transform="translate(18.375 13.84)"/>
</clipPath>
</defs>
</svg>
