<svg width="22" height="21" viewBox="0 0 22 21" fill="none" xmlns="http://www.w3.org/2000/svg">
<path d="M0.335205 0.806641H20.6211V10.5883C19.6881 9.91786 18.5768 9.53986 17.4284 9.50232C16.28 9.46478 15.1464 9.7694 14.1715 10.3775C13.1967 10.9856 12.4245 11.8697 11.9532 12.9176C11.4818 13.9654 11.3326 15.1297 11.5243 16.2626H5.5284L0.335205 20.8066V0.806641Z" fill="#0056CA"/>
<path d="M18.2054 12.0508V10.9496H16.2734V12.0508C15.765 12.2026 15.2994 12.472 14.9143 12.8371L13.9599 12.2856L12.9939 13.9587L13.9493 14.5103C13.8264 15.0256 13.8264 15.5627 13.9493 16.0781L12.9929 16.6306L13.9589 18.3037L14.9172 17.7502C15.2968 18.1086 15.7595 18.38 16.2734 18.5327V19.6387H18.2054V18.5327C18.7122 18.3814 19.1764 18.1134 19.5607 17.7502L20.519 18.3037L21.485 16.6306L20.5287 16.0781C20.6515 15.5627 20.6515 15.0256 20.5287 14.5103L21.485 13.9587L20.519 12.2856L19.5627 12.8362C19.1783 12.4718 18.7128 12.2028 18.2054 12.0508ZM15.7914 15.2917C15.7914 14.9074 15.9441 14.5389 16.2158 14.2671C16.4876 13.9954 16.8561 13.8427 17.2404 13.8427C17.6247 13.8427 17.9933 13.9954 18.265 14.2671C18.5367 14.5389 18.6894 14.9074 18.6894 15.2917C18.6894 15.676 18.5367 16.0446 18.265 16.3163C17.9933 16.5881 17.6247 16.7407 17.2404 16.7407C16.8561 16.7407 16.4876 16.5881 16.2158 16.3163C15.9441 16.0446 15.7914 15.676 15.7914 15.2917Z" fill="#0056CA"/>
</svg>
