<svg width="76" height="65" viewBox="0 0 76 65" fill="none" xmlns="http://www.w3.org/2000/svg">
<path d="M5.875 32.5C5.875 14.5507 20.4257 0 38.375 0C56.3243 0 70.875 14.5507 70.875 32.5C70.875 50.4493 56.3243 65 38.375 65C20.4257 65 5.875 50.4493 5.875 32.5Z" fill="url(#paint0_linear_282_6686)"/>
<path fill-rule="evenodd" clip-rule="evenodd" d="M49.4017 27.0793C48.9349 26.5707 48.1441 26.5369 47.6356 27.0038L38.3076 35.5664L29.3715 26.5956C28.8842 26.1065 28.0928 26.1049 27.6037 26.5921C27.1146 27.0793 27.1131 27.8708 27.6003 28.3599L37.3833 38.1809C37.8565 38.656 38.6202 38.6731 39.1142 38.2196L49.3262 28.8455C49.8347 28.3786 49.8686 27.5879 49.4017 27.0793Z" fill="white"/>
<defs>
<linearGradient id="paint0_linear_282_6686" x1="60.125" y1="7.75" x2="16.125" y2="56.25" gradientUnits="userSpaceOnUse">
<stop stop-color="#2D86FF"/>
<stop offset="1" stop-color="#0056CA"/>
</linearGradient>
</defs>
</svg>
