<svg width="22" height="21" viewBox="0 0 22 21" fill="none" xmlns="http://www.w3.org/2000/svg">
<path d="M0.335449 0.806641H20.6214V10.5883C19.6883 9.91786 18.577 9.53986 17.4286 9.50232C16.2803 9.46478 15.1466 9.7694 14.1718 10.3775C13.1969 10.9856 12.4248 11.8697 11.9534 12.9176C11.4821 13.9654 11.3328 15.1297 11.5246 16.2626H5.52865L0.335449 20.8066V0.806641Z" fill="#C6C6C6"/>
<path d="M18.2057 12.0508V10.9496H16.2737V12.0508C15.7652 12.2026 15.2996 12.472 14.9145 12.8371L13.9601 12.2856L12.9941 13.9587L13.9495 14.5103C13.8267 15.0256 13.8267 15.5627 13.9495 16.0781L12.9932 16.6306L13.9592 18.3037L14.9174 17.7502C15.2971 18.1086 15.7598 18.38 16.2737 18.5327V19.6387H18.2057V18.5327C18.7124 18.3814 19.1766 18.1134 19.561 17.7502L20.5192 18.3037L21.4852 16.6306L20.5289 16.0781C20.6517 15.5627 20.6517 15.0256 20.5289 14.5103L21.4852 13.9587L20.5192 12.2856L19.5629 12.8362C19.1786 12.4718 18.713 12.2028 18.2057 12.0508ZM15.7917 15.2917C15.7917 14.9074 15.9443 14.5389 16.2161 14.2671C16.4878 13.9954 16.8564 13.8427 17.2407 13.8427C17.6249 13.8427 17.9935 13.9954 18.2652 14.2671C18.537 14.5389 18.6896 14.9074 18.6896 15.2917C18.6896 15.676 18.537 16.0446 18.2652 16.3163C17.9935 16.5881 17.6249 16.7407 17.2407 16.7407C16.8564 16.7407 16.4878 16.5881 16.2161 16.3163C15.9443 16.0446 15.7917 15.676 15.7917 15.2917Z" fill="#C6C6C6"/>
</svg>
