<svg width="24" height="25" viewBox="0 0 24 25" fill="none" xmlns="http://www.w3.org/2000/svg">
<path fill-rule="evenodd" clip-rule="evenodd" d="M14.0779 2.94567C14.6691 2.36534 15.6188 2.37414 16.1991 2.96533L19.6864 6.51779C20.2667 7.10898 20.2579 8.05868 19.6667 8.63902L10.7783 17.3642C10.5467 17.5916 10.2476 17.7377 9.92589 17.7806L5.92087 18.315C4.91536 18.4492 4.0694 17.5673 4.24518 16.5683L5.0062 12.2427C5.0604 11.9346 5.20952 11.6512 5.43272 11.4321L14.0779 2.94567ZM15.4855 3.66585C15.2921 3.46879 14.9755 3.46585 14.7784 3.6593L13.1176 5.28961L17.3054 9.5557L18.9662 7.92539C19.1633 7.73194 19.1662 7.41537 18.9728 7.21831L15.4855 3.66585ZM16.5918 10.2562L12.404 5.99014L6.13325 12.1458C6.05885 12.2188 6.00914 12.3133 5.99107 12.4159L5.23005 16.7415C5.17146 17.0746 5.45344 17.3685 5.78861 17.3238L9.79364 16.7894C9.90087 16.7751 10.0006 16.7264 10.0778 16.6506L16.5918 10.2562ZM4 21.5C4 21.2239 4.22386 21 4.5 21H19.5C19.7761 21 20 21.2239 20 21.5C20 21.7761 19.7761 22 19.5 22H4.5C4.22386 22 4 21.7761 4 21.5Z" fill="#BDBDBD"/>
</svg>
