<svg width="24" height="24" viewBox="0 0 24 24" fill="none" xmlns="http://www.w3.org/2000/svg">
<circle cx="12" cy="12" r="12" transform="matrix(-4.37114e-08 -1 -1 4.37114e-08 24 24)" fill="white"/>
<path fill-rule="evenodd" clip-rule="evenodd" d="M7.20938 9.18556C6.92983 9.42517 6.89746 9.84604 7.13707 10.1256C7.37668 10.4051 7.79755 10.4375 8.0771 10.1979L11.6432 7.14121L11.6432 17.6917C11.6432 18.0599 11.9417 18.3584 12.3099 18.3584C12.6781 18.3584 12.9766 18.0599 12.9766 17.6917L12.9766 7.14121L16.5427 10.1979C16.8223 10.4375 17.2431 10.4051 17.4827 10.1256C17.7224 9.84604 17.69 9.42517 17.4104 9.18556L12.7466 5.18795C12.6296 5.08648 12.4769 5.02506 12.3099 5.02506C12.1429 5.02506 11.9902 5.08649 11.8732 5.18798L7.20938 9.18556Z" fill="#0056CA"/>
</svg>
