<svg width="24" height="24" viewBox="0 0 24 24" fill="none" xmlns="http://www.w3.org/2000/svg">
<path d="M8.24744 4.34151C8.61112 3.92587 9.24289 3.88376 9.65852 4.24744L17.6585 11.2475C17.8755 11.4374 18 11.7117 18 12.0001C18 12.2884 17.8755 12.5628 17.6585 12.7527L9.65851 19.7526C9.24288 20.1163 8.61111 20.0742 8.24743 19.6585C7.88375 19.2429 7.92587 18.6111 8.34151 18.2474L15.4814 12.0001L8.34151 5.75259C7.92587 5.3889 7.88376 4.75714 8.24744 4.34151Z" fill="#BDBDBD"/>
<path d="M20 12C20 13.1046 19.1046 14 18 14C16.8954 14 16 13.1046 16 12C16 10.8954 16.8954 10 18 10C19.1046 10 20 10.8954 20 12Z" fill="#BDBDBD"/>
<path d="M10 4C10 5.10457 9.10457 6 8 6C6.89543 6 6 5.10457 6 4C6 2.89543 6.89543 2 8 2C9.10457 2 10 2.89543 10 4Z" fill="#BDBDBD"/>
<path d="M10 20C10 21.1046 9.10457 22 8 22C6.89543 22 6 21.1046 6 20C6 18.8954 6.89543 18 8 18C9.10457 18 10 18.8954 10 20Z" fill="#BDBDBD"/>
</svg>
