<svg width="36" height="36" viewBox="0 0 36 36" fill="none" xmlns="http://www.w3.org/2000/svg">
<g clip-path="url(#clip0_1895_13946)">
<path fill-rule="evenodd" clip-rule="evenodd" d="M10.1875 18C10.1875 17.4822 10.6072 17.0625 11.125 17.0625H24.875C25.3928 17.0625 25.8125 17.4822 25.8125 18C25.8125 18.5178 25.3928 18.9375 24.875 18.9375H11.125C10.6072 18.9375 10.1875 18.5178 10.1875 18Z" fill="#959FAC"/>
<path fill-rule="evenodd" clip-rule="evenodd" d="M10.1875 13C10.1875 12.4822 10.6072 12.0625 11.125 12.0625H24.875C25.3928 12.0625 25.8125 12.4822 25.8125 13C25.8125 13.5178 25.3928 13.9375 24.875 13.9375H11.125C10.6072 13.9375 10.1875 13.5178 10.1875 13Z" fill="#959FAC"/>
<path fill-rule="evenodd" clip-rule="evenodd" d="M10.1875 23C10.1875 22.4822 10.6072 22.0625 11.125 22.0625H24.875C25.3928 22.0625 25.8125 22.4822 25.8125 23C25.8125 23.5178 25.3928 23.9375 24.875 23.9375H11.125C10.6072 23.9375 10.1875 23.5178 10.1875 23Z" fill="#959FAC"/>
</g>
<defs>
<clipPath id="clip0_1895_13946">
<rect width="20" height="20" fill="white" transform="translate(8 8)"/>
</clipPath>
</defs>
</svg>
