<svg width="30" height="31" viewBox="0 0 30 31" fill="none" xmlns="http://www.w3.org/2000/svg">
<circle cx="15" cy="15.6362" r="14.375" fill="white" stroke="#E0E0E0" stroke-width="1.25"/>
<path fill-rule="evenodd" clip-rule="evenodd" d="M17.198 6.29285C17.7523 5.74878 18.6426 5.75704 19.1867 6.31127L22.456 9.64171C23 10.1959 22.9918 11.0863 22.4376 11.6304L14.1047 19.8102C13.8875 20.0234 13.6071 20.1604 13.3055 20.2006L9.55081 20.7016C8.60815 20.8274 7.81507 20.0007 7.97985 19.064L8.69331 15.0088C8.74412 14.72 8.88393 14.4543 9.09318 14.2489L17.198 6.29285ZM18.5177 6.96802C18.3363 6.78327 18.0395 6.78052 17.8548 6.96187L16.2978 8.49029L20.2238 12.4897L21.7808 10.9613C21.9656 10.78 21.9683 10.4832 21.787 10.2984L18.5177 6.96802ZM19.5548 13.1465L15.6288 9.14703L9.74992 14.9179C9.68017 14.9864 9.63357 15.075 9.61663 15.1712L8.90317 19.2265C8.84824 19.5387 9.1126 19.8142 9.42683 19.7723L13.1815 19.2713C13.2821 19.2579 13.3755 19.2123 13.4479 19.1412L19.5548 13.1465ZM7.75 23.6875C7.75 23.4286 7.95987 23.2188 8.21875 23.2188H22.2812C22.5401 23.2188 22.75 23.4286 22.75 23.6875C22.75 23.9464 22.5401 24.1563 22.2812 24.1563H8.21875C7.95987 24.1563 7.75 23.9464 7.75 23.6875Z" fill="#E0E0E0"/>
</svg>
